HIERARCHY
ROOT SpineBase
{
  OFFSET 0.000000 0.000000 0.000000
  CHANNELS 6 Xposition Yposition Zposition Zrotation Xrotation Yrotation
  JOINT SpineMid
  {
    OFFSET 0.000000 31.477896 0.000000
    CHANNELS 3 Zrotation Xrotation Yrotation
    JOINT SpineShoulder
    {
      OFFSET 0.111177 23.422252 -0.936505
      CHANNELS 3 Zrotation Xrotation Yrotation
      JOINT Neck
      {
        OFFSET 0.116720 7.749930 -0.623847
        CHANNELS 3 Zrotation Xrotation Yrotation
        JOINT Head
        {
          OFFSET -3.562736 9.071439 4.453068
          CHANNELS 3 Zrotation Xrotation Yrotation
          End Site
          {
            OFFSET 0 0 0
          }
        }
      }
      JOINT ShoulderLeft
      {
        OFFSET -6.130285 -5.441720 -15.202085
        CHANNELS 3 Zrotation Xrotation Yrotation
        JOINT ElbowLeft
        {
          OFFSET -1.548611 -21.414741 -2.114673
          CHANNELS 3 Zrotation Xrotation Yrotation
          JOINT WristLeft
          {
            OFFSET -5.559125 -18.372209 4.381051
            CHANNELS 3 Zrotation Xrotation Yrotation
            JOINT HandLeft
            {
              OFFSET 0.071830 -7.721087 2.830051
              CHANNELS 3 Zrotation Xrotation Yrotation
              JOINT HandTipLeft
              {
                OFFSET -2.169146 -6.338256 0.222456
                CHANNELS 3 Zrotation Xrotation Yrotation
                End Site
                {
                  OFFSET 0 0 0
                }
              }
              JOINT ThumbLeft
              {
                OFFSET 2.941329 -0.532533 -2.550800
                CHANNELS 3 Zrotation Xrotation Yrotation
                End Site
                {
                  OFFSET 0 0 0
                }
              }
            }
          }
        }
      }
      JOINT ShoulderRight
      {
        OFFSET 1.258944 -4.622113 -11.630202
        CHANNELS 3 Zrotation Xrotation Yrotation
        JOINT ElbowRight
        {
          OFFSET -9.252101 -23.876280 -5.774056
          CHANNELS 3 Zrotation Xrotation Yrotation
          JOINT WristRight
          {
            OFFSET -5.079136 -19.503530 5.515966
            CHANNELS 3 Zrotation Xrotation Yrotation
            JOINT HandRight
            {
              OFFSET 0.396689 -4.878133 1.858980
              CHANNELS 3 Zrotation Xrotation Yrotation
              JOINT HandTipRight
              {
                OFFSET -1.571994 -6.376264 0.359524
                CHANNELS 3 Zrotation Xrotation Yrotation
                End Site
                {
                  OFFSET 0 0 0
                }
              }
              JOINT ThumbRight
              {
                OFFSET 3.375012 0.069372 -3.265185
                CHANNELS 3 Zrotation Xrotation Yrotation
                End Site
                {
                  OFFSET 0 0 0
                }
              }
            }
          }
        }
      }
    }
  }
  JOINT HipLeft
  {
    OFFSET -5.096568 0.826584 0.120524
    CHANNELS 3 Zrotation Xrotation Yrotation
    JOINT KneeLeft
    {
      OFFSET 12.583733 -29.463204 8.545594
      CHANNELS 3 Zrotation Xrotation Yrotation
      JOINT AnkleLeft
      {
        OFFSET 2.208017 -37.733947 5.142112
        CHANNELS 3 Zrotation Xrotation Yrotation
        JOINT FootLeft
        {
          OFFSET -7.000443 -3.632548 -12.220010
          CHANNELS 3 Zrotation Xrotation Yrotation
          End Site
          {
            OFFSET 0 0 0
          }
        }
      }
    }
  }
  JOINT HipRight
  {
    OFFSET 5.444080 0.899257 -7.143866
    CHANNELS 3 Zrotation Xrotation Yrotation
    JOINT KneeRight
    {
      OFFSET -10.575417 -31.173917 -0.789880
      CHANNELS 3 Zrotation Xrotation Yrotation
      JOINT AnkleRight
      {
        OFFSET 5.778322 -36.545732 5.002361
        CHANNELS 3 Zrotation Xrotation Yrotation
        JOINT FootRight
        {
          OFFSET 4.498500 -3.092038 -12.066737
          CHANNELS 3 Zrotation Xrotation Yrotation
          End Site
          {
            OFFSET 0 0 0
          }
        }
      }
    }
  }
}
MOTION
Frames: 9
Frame Time: 0.033333
-14.988695 72.370013 365.460120 1.245409 -1.658731 24.421045 0.346304 1.390952 -24.378191 1.168313 0.030853 0.132984 -15.985613 10.021983 11.776181 0.000000 0.000000 0.000000 0.718792 2.966717 -0.733997 -2.839983 -2.775660 0.412691 1.564437 -25.355144 0.633285 16.911414 19.748478 -4.771929 0.000000 0.000000 0.000000 0.000000 0.000000 0.000000 1.835845 5.441013 -3.365495 -5.628459 -12.235845 3.617117 18.123632 -9.967922 3.799956 -15.213941 17.277853 -2.245297 0.000000 0.000000 0.000000 0.000000 0.000000 0.000000 -0.317204 -0.803573 -25.092295 -5.892476 5.627607 0.617959 3.773980 0.831157 -4.095751 0.000000 0.000000 0.000000 1.921157 4.406968 -25.628789 -2.291147 -0.612945 1.284349 -10.314152 -31.261103 16.314346 0.000000 0.000000 0.000000
-14.573409 72.280928 365.739269 1.524693 -1.781068 23.531133 0.167127 1.344091 -23.472805 1.079567 0.006453 0.133343 -15.856147 11.343440 12.198500 0.000000 0.000000 0.000000 -4.113909 -0.879950 0.102397 4.085751 5.971062 -1.348885 -4.250702 -4.876776 -0.157358 20.986080 -3.047919 3.268953 0.000000 0.000000 0.000000 0.000000 0.000000 0.000000 -1.398766 4.788814 -2.068081 -2.142084 -11.703453 3.024271 18.034455 -11.362844 3.658352 -15.706835 19.201098 -1.918689 0.000000 0.000000 0.000000 0.000000 0.000000 0.000000 -1.107329 0.148266 -24.241036 -4.997564 4.865251 0.593776 5.112701 -1.132308 -4.589904 0.000000 0.000000 0.000000 0.417468 5.602579 -24.754204 -0.557375 -0.684746 1.490203 -8.284480 -23.748486 12.344220 0.000000 0.000000 0.000000
-14.192754 72.206186 365.910787 1.638672 -1.746101 23.089382 0.104508 1.158377 -23.021608 0.980874 -0.020568 0.132649 -14.749226 12.711631 12.037190 0.000000 0.000000 0.000000 -8.361977 -2.527266 0.555925 7.683894 6.785738 -1.911460 -10.324513 -9.381588 -3.544100 21.303709 2.873455 3.583842 0.000000 0.000000 0.000000 0.000000 0.000000 0.000000 -7.212407 6.012967 -0.739419 3.678137 -13.019124 2.427413 17.920844 -6.343899 3.165535 -18.327933 12.374010 -1.943476 0.000000 0.000000 0.000000 0.000000 0.000000 0.000000 -1.452189 0.581029 -23.768139 -4.109374 4.042151 0.532868 5.611860 -4.230021 -1.179959 0.000000 0.000000 0.000000 -1.130341 6.285244 -24.190935 1.190656 -0.479751 1.596940 -7.221948 -19.287553 13.357025 0.000000 0.000000 0.000000
-14.047825 72.255840 365.913122 1.372433 -1.553959 25.385564 0.226121 0.794439 -25.323505 0.869549 -0.114972 0.125893 -13.240819 13.863259 11.635196 0.000000 0.000000 0.000000 -13.652044 -7.076002 0.923493 10.197379 5.044217 -1.889969 -12.832796 -10.502267 -6.593186 13.884876 7.036383 5.849089 0.000000 0.000000 0.000000 0.000000 0.000000 0.000000 -13.357390 8.203713 0.582902 9.364621 -14.350515 1.757867 16.685251 2.118491 2.598051 -20.248612 2.701086 -3.525098 0.000000 0.000000 0.000000 0.000000 0.000000 0.000000 -1.095605 0.735528 -25.903397 -3.634663 3.189717 0.327416 6.230065 -6.801496 1.548976 0.000000 0.000000 0.000000 -1.860251 5.654388 -26.131845 2.222741 0.601849 1.377565 -6.347435 -17.464084 8.769928 0.000000 0.000000 0.000000
-13.886954 72.323981 366.010248 1.197656 -1.499352 24.479756 0.341590 0.664004 -24.421447 0.874047 -0.180512 0.128342 -12.322215 14.272156 11.195818 0.000000 0.000000 0.000000 -19.833943 -16.100496 0.461092 10.041378 -0.516096 -1.092888 -8.013020 -1.207362 -7.829632 -10.839838 -1.069756 12.296676 0.000000 0.000000 0.000000 0.000000 0.000000 0.000000 -20.117432 11.498961 1.942489 15.566405 -17.067382 1.926375 14.429797 15.235796 1.868937 -20.998847 -9.810597 -7.273832 0.000000 0.000000 0.000000 0.000000 0.000000 0.000000 -0.619738 0.832570 -24.794367 -3.572523 2.413556 0.079253 10.174903 -13.503784 3.231902 0.000000 0.000000 0.000000 -2.659223 6.057334 -25.191467 3.340125 0.644538 1.479132 -6.433689 -19.908099 -0.118808 0.000000 0.000000 0.000000
-13.771822 72.263321 366.044093 0.974382 -1.382023 21.293024 0.428925 0.588981 -21.242115 0.789472 -0.198215 0.119189 -11.174964 13.962351 10.455745 0.000000 0.000000 0.000000 -28.081800 -25.470649 -1.406409 7.167387 -16.971346 -0.067286 -11.212659 -21.111852 -19.067272 -34.586676 7.308734 46.141102 0.000000 0.000000 0.000000 0.000000 0.000000 0.000000 -26.907893 15.814878 3.469094 22.296384 -21.150281 3.363962 10.422320 31.688535 1.526488 -19.203946 -21.732153 -12.026382 0.000000 0.000000 0.000000 0.000000 0.000000 0.000000 0.012628 0.225010 -21.517298 -5.103991 2.882838 -0.077866 13.295500 -16.691857 2.055450 0.000000 0.000000 0.000000 -3.146940 6.448919 -22.145073 3.909385 0.261785 1.714753 -6.423771 -21.602000 -8.597087 0.000000 0.000000 0.000000
-13.641950 72.088953 366.259861 0.897299 -1.531412 16.166107 0.511840 0.683409 -16.116059 0.696412 -0.193181 0.113781 -11.444622 13.724957 10.552933 0.000000 0.000000 0.000000 -36.942203 -33.639036 -4.688389 2.370982 -35.320217 -1.835881 -12.162800 -16.669690 -26.289123 -35.380068 0.294577 67.074608 0.000000 0.000000 0.000000 0.000000 0.000000 0.000000 -31.699663 20.079540 4.695876 26.931767 -24.563093 5.230797 6.180547 44.415013 2.701640 -20.270761 -32.805689 -16.692006 0.000000 0.000000 0.000000 0.000000 0.000000 0.000000 0.573843 -0.158589 -16.377368 -6.216582 3.655952 -0.067814 13.639715 -16.988187 3.345179 0.000000 0.000000 0.000000 -3.877429 7.590650 -17.314748 4.553772 -0.736054 2.183305 -18.786269 -39.890027 -20.110140 0.000000 0.000000 0.000000
-13.479352 71.860156 366.621122 1.023148 -1.912858 9.684011 0.490344 0.926154 -9.626906 0.571940 -0.151834 0.110417 -13.110407 13.334394 11.397350 0.000000 0.000000 0.000000 -44.877823 -39.300130 -8.406668 -1.267552 -45.272053 -5.639260 -11.544453 -8.785161 -28.593580 -30.189759 -3.938027 74.560185 0.000000 0.000000 0.000000 0.000000 0.000000 0.000000 -33.771987 23.729297 5.187677 28.835234 -27.018758 6.924278 3.401924 51.963736 4.503250 -24.337194 -40.131543 -22.065094 0.000000 0.000000 0.000000 0.000000 0.000000 0.000000 0.898147 -0.272992 -9.976308 -7.273677 4.930167 0.104005 12.013966 -14.238430 2.659397 0.000000 0.000000 0.000000 -5.179296 9.254094 -11.195323 5.246999 -2.172544 2.833933 -13.629976 -33.181661 -23.510256 0.000000 0.000000 0.000000
-13.344568 71.569703 367.046774 1.382499 -2.432577 3.082097 0.351959 1.278372 -3.006350 0.438194 -0.046902 0.111604 -16.625959 12.467320 13.139051 0.000000 0.000000 0.000000 -49.649764 -42.753440 -11.166449 -3.331241 -49.454403 -8.021872 -7.222753 -8.046453 -32.756249 -32.044648 -5.774355 81.385559 0.000000 0.000000 0.000000 0.000000 0.000000 0.000000 -33.096192 25.880657 4.655517 27.876598 -28.076846 7.686278 6.295965 56.193879 5.032388 -31.880865 -41.109392 -29.174598 0.000000 0.000000 0.000000 0.000000 0.000000 0.000000 0.969083 -0.282697 -3.513228 -7.940890 6.249124 0.392887 8.326079 -8.070247 0.443122 0.000000 0.000000 0.000000 -6.926306 10.860250 -4.906030 5.752294 -3.667274 3.511064 -38.508765 -53.533210 -38.830129 0.000000 0.000000 0.000000
